<?xml version="1.0" encoding="UTF-8"?>
<!DOCTYPE svg PUBLIC "-//W3C//DTD SVG 1.1//EN" "http://www.w3.org/Graphics/SVG/1.1/DTD/svg11.dtd">
<svg xmlns="http://www.w3.org/2000/svg" xmlns:xlink="http://www.w3.org/1999/xlink" version="1.1" width="283px" height="323px" viewBox="-0.5 -0.5 283 323"><defs/><g><g data-cell-id="0"><g data-cell-id="1"><g data-cell-id="3MEOhzUwkwhzq8uWMe00-2"><g><path d="M 60 20 L 220 20 L 300 160 L 220 300 L 60 300 L -20 160 Z" fill="rgb(255, 255, 255)" stroke="none" transform="rotate(-90,140,160)" pointer-events="all"/></g></g><g data-cell-id="3MEOhzUwkwhzq8uWMe00-3"><g><path d="M 0 320 L 0 240 L 140 160 L 140 320 Z" fill="#b3b3b3" stroke="none" transform="translate(0,240)scale(1,-1)translate(0,-240)" pointer-events="all"/></g></g><g data-cell-id="3MEOhzUwkwhzq8uWMe00-4"><g><path d="M 140 160 L 140 80 L 280 0 L 280 160 Z" fill="#b3b3b3" stroke="none" transform="translate(210,0)scale(-1,1)translate(-210,0)" pointer-events="all"/></g></g><g data-cell-id="3MEOhzUwkwhzq8uWMe00-5"><g><path d="M 60 20 L 220 20 L 300 160 L 220 300 L 60 300 L -20 160 Z" fill="none" stroke="rgb(0, 0, 0)" stroke-width="2" stroke-miterlimit="10" transform="rotate(-90,140,160)" pointer-events="all"/></g></g></g></g></g></svg>